<?xml version="1.0" encoding="UTF-8" standalone="no"?>
<svg
   version="1.1"
   width="414.54327pt"
   height="394.54608pt"
   id="svg409"
   viewBox="0 0 414.54327 394.54608"
   sodipodi:docname="source-logo-kriver-devices.svg"
   xmlns:inkscape="http://www.inkscape.org/namespaces/inkscape"
   xmlns:sodipodi="http://sodipodi.sourceforge.net/DTD/sodipodi-0.dtd"
   xmlns="http://www.w3.org/2000/svg"
   xmlns:svg="http://www.w3.org/2000/svg">
  <defs
     id="defs413" />
  <sodipodi:namedview
     id="namedview411"
     pagecolor="#505050"
     bordercolor="#ffffff"
     borderopacity="1"
     inkscape:showpageshadow="0"
     inkscape:pageopacity="0"
     inkscape:pagecheckerboard="1"
     inkscape:deskcolor="#505050"
     showgrid="false"
     inkscape:document-units="pt"
     showguides="true" />
  <g
     id="g1461"
     inkscape:export-filename="logo-image/full-logo-512.png"
     inkscape:export-xdpi="267.99756"
     inkscape:export-ydpi="267.99756"
     transform="matrix(4.1566475,0,0,4.1566475,975.81665,-2088.2168)">
    <path
       d="m -188.3133,506.07706 a 42.75,42.75 0 0 1 42.75,42.75 42.75,42.75 0 1 1 -42.75,-42.75 z"
       style="fill:none;stroke:#c4c6c8;stroke-width:0.216;stroke-linecap:butt;stroke-linejoin:miter;stroke-dasharray:none"
       id="path2950"
       inkscape:export-filename="semi-logo.svg"
       inkscape:export-xdpi="666.6676"
       inkscape:export-ydpi="666.6676" />
    <path
       d="m -188.3133,525.26276 a 23.5643,23.5643 0 0 1 23.5643,23.5643 23.5643,23.5643 0 1 1 -23.5643,-23.5643 z"
       style="fill:none;stroke:#c4c6c8;stroke-width:0.216;stroke-linecap:butt;stroke-linejoin:miter;stroke-dasharray:none"
       id="path2952" />
    <path
       d="m -188.3133,515.07706 a 33.75,33.75 0 0 1 33.75,33.75 33.75,33.75 0 1 1 -33.75,-33.75 z"
       style="fill:none;stroke:#c4c6c8;stroke-width:0.216;stroke-linecap:butt;stroke-linejoin:miter;stroke-dasharray:none"
       id="path2954" />
    <path
       d="m -194.0357,597.29936 h 11.4443 v -11.4444 h -11.4443 z"
       style="fill:#009ee0;fill-rule:evenodd"
       id="path2956" />
    <path
       d="m -227.7856,554.54946 h 11.4443 v -11.4443 h -11.4443 z"
       style="fill:#e30016;fill-rule:evenodd"
       id="path2958" />
    <path
       d="m -194.0357,530.98536 h 11.4443 v -11.4443 h -11.4443 z"
       style="fill:#ffec00;fill-rule:evenodd"
       id="path2960" />
    <path
       d="m -188.3134,502.38006 -3e-4,94.9193"
       style="fill:none;stroke:#565757;stroke-width:0.216;stroke-linecap:butt;stroke-linejoin:miter;stroke-dasharray:1.08, 0.648, 1.08, 0.648"
       id="path2962" />
    <path
       d="m -234.7605,548.82716 h 93.74275"
       style="fill:none;stroke:#565757;stroke-width:0.203731;stroke-linecap:butt;stroke-linejoin:miter;stroke-dasharray:1.01865, 0.611191, 1.01865, 0.611191"
       id="path2964"
       inkscape:export-filename="full-logo.svg"
       inkscape:export-xdpi="241.77922"
       inkscape:export-ydpi="241.77922" />
  </g>
  <path
     d="m 414.54327,96.937619 -1.41077,3.335291 c -4.92937,11.64443 -67.13983,78.07639 -88.12425,98.30014 l 51.05194,49.09003 c 9.4888,9.1205 16.07792,13.7705 19.83843,13.7705 3.47621,0 9.19409,-3.7784 16.92172,-11.6095 l 1.11315,-1.1285 -30.69435,38.2087 -2.5846,-2.4915 c -22.99957,-22.1582 -50.8782,-47.1625 -71.70384,-70.976 l -17.40762,15.38 c -22.55896,19.9345 -33.23115,24.9092 -48.64649,33.2262 -15.41535,8.3174 -35.37972,12.8137 -50.48041,12.1382 -47.87543,-2.1406 -79.28057,-38.4523 -80.31599,-79.35077 -0.62724,-24.83099 8.58182,-42.8434 21.86106,-56.9839 10.79356,-11.49355 24.18379,-19.41778 38.32678,-22.93181 25.92667,-6.43823 48.19591,-0.53122 69.31376,10.21413 15.25407,7.76046 27.10259,18.78805 45.19814,36.55605 l 0.85876,-2.34767 c 6.40581,-17.50863 6.27197,-39.06251 6.66768,-47.51547 0.16128,-3.4284 -1.31475,-5.12348 -4.55943,-5.12348 -2.44327,0 -6.57914,1.1888 -12.36228,3.524 l -2.44328,0.9872 40.9488,-26.480321 c 0.0374,2.17351 0.0453,3.85113 -0.45848,7.42293 -1.85386,13.974651 -13.27924,64.691571 -19.53084,77.852341 l 22.75515,22.13083 c 23.63927,-25.64195 34.88092,-40.56888 52.4677,-67.5102 9.98468,-15.29687 -0.63223,-9.2822 -2.87183,-7.94709 -17.80292,10.60693 -12.79291,1.7857 -6.9973,-19.740331 z M 303.48222,207.51778 287.67407,189.46251 c -3.18399,6.03005 -17.93427,43.43737 -38.34964,80.52257 -6.80568,12.3648 -11.13816,19.7454 -11.92667,19.7454 -6.72005,0 -21.3951,1.4282 -23.72241,-3.4559 l -11.67976,-24.4835 c 4.92438,11.6573 20.16307,19.4456 25.90132,19.2968 6.47813,-0.1687 11.13067,0.8692 16.95912,-13.1558 5.94193,-14.2918 18.91898,-37.9514 35.00687,-86.67354 -25.06999,-26.45291 -37.94895,-45.52278 -52.47227,-53.84272 -14.52125,-8.31704 -26.47327,-11.79075 -42.45267,-11.54883 -21.14321,0.31964 -37.30176,9.64217 -51.27391,25.04214 -14.1405,15.5841 -20.29442,35.16066 -19.8509,53.76748 1.1385,47.60607 39.87596,76.44947 79.94064,77.58797 17.00484,0.4834 33.68215,-5.8792 47.25111,-13.3649 13.58891,-7.4961 33.53832,-23.6571 55.13751,-44.3493 z"
     style="fill:#1b1918;fill-rule:evenodd;stroke-width:4.15665"
     id="path2966"
     inkscape:export-filename="semitext.svg"
     inkscape:export-xdpi="666.6676"
     inkscape:export-ydpi="666.6676" />
  <path
     d="m 194.95024,187.31027 c 1.70173,0 3.02479,0.59398 3.96752,1.7832 0.94231,1.18922 1.23577,2.57671 0.87871,4.16247 -0.35705,1.58534 -1.27484,2.972 -2.75212,4.16122 -1.47768,1.18922 -3.06843,1.78402 -4.76975,1.78402 -1.88421,-0.062 -3.31201,-0.62473 -4.28176,-1.69174 -0.97099,-1.06743 -1.23619,-2.57713 -0.79641,-4.52826 0.42148,-1.58534 1.39497,-2.92711 2.91713,-4.02405 1.52217,-1.09777 3.13536,-1.64686 4.83668,-1.64686 z"
     style="fill:#e30016;fill-rule:evenodd;stroke-width:4.15665"
     id="path2968" />
</svg>
